<svg width="22" height="19" viewBox="0 0 22 19" fill="none" xmlns="http://www.w3.org/2000/svg">
<path d="M19.5742 4.95045C19.5742 5.15279 19.5742 5.33827 19.5742 5.50689C19.5742 7.02445 19.2875 8.52516 18.7142 10.009C18.1747 11.4591 17.3822 12.7912 16.3367 14.0053C15.325 15.2193 13.9929 16.2142 12.3405 16.9898C10.7217 17.7317 8.93438 18.1027 6.9784 18.1027C4.51658 18.1027 2.25709 17.4451 0.199951 16.1298C0.537188 16.1636 0.891286 16.1804 1.26225 16.1804C3.31939 16.1804 5.15733 15.5565 6.77606 14.3088C5.79808 14.275 4.92126 13.9715 4.14562 13.3982C3.4037 12.8249 2.89784 12.0999 2.62805 11.223C2.89784 11.2905 3.16763 11.3242 3.43742 11.3242C3.84211 11.3242 4.22993 11.2568 4.60089 11.1219C3.58918 10.9195 2.74609 10.4137 2.07161 9.60431C1.39714 8.79495 1.0599 7.86755 1.0599 6.82211C1.0599 6.78839 1.0599 6.77153 1.0599 6.77153C1.70065 7.10876 2.37513 7.29424 3.08332 7.32797C1.7681 6.41743 1.11049 5.18651 1.11049 3.63523C1.11049 2.82586 1.31283 2.08394 1.71752 1.40947C2.8304 2.75841 4.16248 3.83757 5.71377 4.64694C7.29878 5.4563 9.00182 5.91157 10.8229 6.01274C10.7555 5.67551 10.7217 5.33827 10.7217 5.00103C10.7217 3.78698 11.1433 2.75841 11.9864 1.91532C12.8632 1.03851 13.9086 0.600098 15.1227 0.600098C16.4042 0.600098 17.4833 1.05537 18.3601 1.96591C19.3718 1.76356 20.3161 1.40947 21.1929 0.903611C20.8557 1.94904 20.1981 2.75841 19.2201 3.33171C20.1306 3.23054 20.9906 3.01134 21.7999 2.6741C21.1929 3.55092 20.451 4.3097 19.5742 4.95045Z" fill="#56616D"/>
</svg>
