<svg width="22" height="22" viewBox="0 0 22 22" fill="none" xmlns="http://www.w3.org/2000/svg">
<path d="M18.3625 4.49972H15.6309C14.5855 4.49972 13.6918 4.87068 12.9499 5.6126C12.2417 6.35452 11.8876 7.24819 11.8876 8.29363V10.9747H9.71241V14.2121H11.8876V21.7494H15.1251V14.2121H18.3625V10.9747H15.1251V8.79948C15.1251 8.52969 15.2262 8.29363 15.4286 8.09129C15.6309 7.85522 15.8838 7.73719 16.1874 7.73719H18.3625V4.49972ZM0 1.19995C0 0.647665 0.447715 0.199951 1 0.199951H20.6C21.1523 0.199951 21.6 0.647666 21.6 1.19995V20.7494C21.6 21.3017 21.1523 21.7494 20.6 21.7494H1C0.447717 21.7494 0 21.3016 0 20.7494V1.19995Z" fill="#56616D"/>
</svg>
