<svg width="23" height="22" viewBox="0 0 23 22" fill="none" xmlns="http://www.w3.org/2000/svg">
<path d="M11.6003 2.14594C14.484 2.14594 14.8256 2.15691 15.9644 2.20887C17.0174 2.25693 17.5892 2.43287 17.9698 2.58073C18.4739 2.77665 18.8337 3.01072 19.2116 3.38863C19.5895 3.76653 19.8236 4.12635 20.0195 4.63042C20.1674 5.01103 20.3433 5.58288 20.3914 6.63582C20.4433 7.77468 20.4543 8.11623 20.4543 11C20.4543 13.8837 20.4433 14.2253 20.3914 15.3641C20.3433 16.4171 20.1674 16.9889 20.0195 17.3695C19.8236 17.8736 19.5895 18.2334 19.2116 18.6113C18.8337 18.9892 18.4739 19.2233 17.9698 19.4192C17.5892 19.5671 17.0174 19.743 15.9644 19.7911C14.8257 19.843 14.4842 19.854 11.6003 19.854C8.71636 19.854 8.37481 19.843 7.23617 19.7911C6.18318 19.743 5.61132 19.5671 5.23076 19.4192C4.72665 19.2233 4.36683 18.9892 3.98893 18.6113C3.61102 18.2334 3.37695 17.8736 3.18107 17.3695C3.03317 16.9889 2.85723 16.4171 2.80917 15.3641C2.75721 14.2253 2.74624 13.8837 2.74624 11C2.74624 8.11623 2.75721 7.77468 2.80917 6.63587C2.85723 5.58288 3.03317 5.01103 3.18107 4.63042C3.37695 4.12635 3.61102 3.76653 3.98893 3.38863C4.36683 3.01072 4.72665 2.77665 5.23076 2.58073C5.61132 2.43287 6.18318 2.25693 7.23612 2.20887C8.37498 2.15691 8.71653 2.14594 11.6003 2.14594ZM11.6003 0.199951C8.66715 0.199951 8.2994 0.212384 7.14747 0.264943C5.99789 0.317417 5.21284 0.49996 4.52584 0.766959C3.81564 1.04296 3.21335 1.41225 2.61295 2.01265C2.01255 2.61305 1.64326 3.21535 1.36726 3.92554C1.10026 4.61254 0.917716 5.39759 0.865242 6.54717C0.812683 7.69906 0.800293 8.06685 0.800293 11C0.800293 13.9331 0.812683 14.3009 0.865242 15.4528C0.917716 16.6024 1.10026 17.3874 1.36726 18.0744C1.64326 18.7846 2.01255 19.3869 2.61295 19.9873C3.21335 20.5877 3.81564 20.957 4.52584 21.233C5.21284 21.5 5.99789 21.6825 7.14747 21.735C8.2994 21.7876 8.66715 21.7999 11.6003 21.7999C14.5334 21.7999 14.9012 21.7876 16.0531 21.735C17.2027 21.6825 17.9877 21.5 18.6747 21.233C19.3849 20.957 19.9872 20.5877 20.5876 19.9873C21.188 19.3869 21.5573 18.7846 21.8333 18.0744C22.1003 17.3874 22.2828 16.6024 22.3353 15.4528C22.3879 14.3009 22.4003 13.9331 22.4003 11C22.4003 8.06685 22.3879 7.69906 22.3353 6.54717C22.2828 5.39759 22.1003 4.61254 21.8333 3.92554C21.5573 3.21535 21.188 2.61305 20.5876 2.01265C19.9872 1.41225 19.3849 1.04296 18.6747 0.766959C17.9877 0.49996 17.2027 0.317417 16.0531 0.264943C14.9012 0.212384 14.5334 0.199951 11.6003 0.199951ZM11.6003 5.45401C8.53733 5.45401 6.05431 7.93704 6.05431 11C6.05431 14.0629 8.53733 16.5459 11.6003 16.5459C14.6632 16.5459 17.1462 14.0629 17.1462 11C17.1462 7.93704 14.6632 5.45401 11.6003 5.45401ZM11.6003 14.6C9.61206 14.6 8.00025 12.9882 8.00025 11C8.00025 9.01176 9.61206 7.39995 11.6003 7.39995C13.5885 7.39995 15.2003 9.01176 15.2003 11C15.2003 12.9882 13.5885 14.6 11.6003 14.6ZM18.6613 5.2349C18.6613 5.95066 18.0811 6.53092 17.3653 6.53092C16.6496 6.53092 16.0693 5.95066 16.0693 5.2349C16.0693 4.51913 16.6496 3.93892 17.3653 3.93892C18.0811 3.93892 18.6613 4.51913 18.6613 5.2349Z" fill="#56616D"/>
</svg>
