<svg width="22" height="16" viewBox="0 0 22 16" fill="none" xmlns="http://www.w3.org/2000/svg">
<path d="M21.7475 4.03752C21.9161 5.21785 22.0004 6.38131 22.0004 7.52792V9.14665L21.7475 12.6371C21.6126 13.615 21.3259 14.3232 20.8875 14.7616C20.4154 15.2338 19.7072 15.5373 18.7629 15.6722C17.8524 15.7396 16.7564 15.7902 15.4749 15.8239C14.2271 15.8577 13.1985 15.8745 12.3891 15.8745H11.1751C7.43177 15.8408 4.98681 15.7734 3.8402 15.6722C3.8402 15.6722 3.70531 15.6553 3.43552 15.6216C3.16573 15.5879 2.94653 15.5541 2.77791 15.5204C2.60929 15.4867 2.39009 15.4024 2.1203 15.2675C1.88423 15.1326 1.66503 14.964 1.46269 14.7616C1.29407 14.5593 1.12545 14.2895 0.956831 13.9523C0.821936 13.5813 0.737627 13.2609 0.703903 12.9912L0.602733 12.6371C0.467838 11.4567 0.400391 10.2933 0.400391 9.14665V7.52792L0.602733 4.03752C0.737627 3.05953 1.02428 2.35134 1.46269 1.91293C1.93482 1.40707 2.65988 1.10356 3.63786 1.00239C4.5484 0.934943 5.62756 0.884358 6.87533 0.850634C8.12311 0.816911 9.15168 0.800049 9.96105 0.800049H11.1751C14.2102 0.800049 16.7395 0.867496 18.7629 1.00239C19.7072 1.10356 20.4154 1.40707 20.8875 1.91293C21.0224 2.04782 21.1404 2.21644 21.2416 2.41878C21.3428 2.5874 21.4271 2.77288 21.4945 2.97522C21.562 3.14384 21.6126 3.31246 21.6463 3.48108C21.68 3.6497 21.7137 3.78459 21.7475 3.88576V4.03752ZM14.1091 8.48904L14.8173 8.13494L8.99992 5.09981V11.1701L14.1091 8.48904Z" fill="#56616D"/>
</svg>
