<svg width="24" height="24" viewBox="0 0 24 24" fill="none" xmlns="http://www.w3.org/2000/svg">
<g id="instagram 1" clip-path="url(#clip0_364_1080)">
<g id="Group">
<g id="Group_2">
<path id="Vector" d="M17.6251 0H5.87534C2.64446 0 0.000488281 2.70023 0.000488281 5.99985V18.0001C0.000488281 21.2989 2.64446 24 5.87534 24H17.6251C20.8559 24 23.4999 21.2989 23.4999 18.0001V5.99985C23.4999 2.70023 20.8559 0 17.6251 0ZM21.5415 18.0001C21.5415 20.2051 19.7853 22 17.6251 22H5.87534C3.71605 22 1.95887 20.2051 1.95887 18.0001V5.99985C1.95887 3.79432 3.71605 2.00005 5.87534 2.00005H17.6251C19.7853 2.00005 21.5415 3.79432 21.5415 5.99985V18.0001Z" fill="white"/>
</g>
</g>
<g id="Group_3">
<g id="Group_4">
<path id="Vector_2" d="M18.1154 6.99968C18.9266 6.99968 19.5842 6.32813 19.5842 5.49972C19.5842 4.67131 18.9266 3.99976 18.1154 3.99976C17.3043 3.99976 16.6467 4.67131 16.6467 5.49972C16.6467 6.32813 17.3043 6.99968 18.1154 6.99968Z" fill="white"/>
</g>
</g>
<g id="Group_5">
<g id="Group_6">
<path id="Vector_3" d="M11.7501 5.99976C8.50482 5.99976 5.87524 8.68557 5.87524 11.9996C5.87524 15.3124 8.50482 18 11.7501 18C14.9945 18 17.625 15.3124 17.625 11.9996C17.625 8.68557 14.9945 5.99976 11.7501 5.99976ZM11.7501 16C9.58725 16 7.83363 14.2091 7.83363 11.9996C7.83363 9.79015 9.58725 7.9998 11.7501 7.9998C13.913 7.9998 15.6666 9.79015 15.6666 11.9996C15.6666 14.2091 13.913 16 11.7501 16Z" fill="white"/>
</g>
</g>
</g>
<defs>
<clipPath id="clip0_364_1080">
<rect width="23.5" height="24" fill="white"/>
</clipPath>
</defs>
</svg>
