<svg width="70" height="70" viewBox="0 0 70 70" fill="none" xmlns="http://www.w3.org/2000/svg">
<circle cx="35" cy="35" r="35" fill="white"/>
<path d="M47.3957 35C47.3964 35.3006 47.3193 35.5963 47.1719 35.8583C47.0245 36.1203 46.8118 36.3398 46.5545 36.4952L30.6082 46.2503C30.3393 46.4149 30.0314 46.5048 29.7162 46.5106C29.401 46.5165 29.09 46.4381 28.8152 46.2835C28.5431 46.1313 28.3164 45.9094 28.1584 45.6406C28.0005 45.3718 27.917 45.0657 27.9165 44.754V25.246C27.917 24.9342 28.0005 24.6282 28.1584 24.3593C28.3164 24.0905 28.5431 23.8686 28.8152 23.7165C29.09 23.5619 29.401 23.4835 29.7162 23.4893C30.0314 23.4952 30.3393 23.585 30.6082 23.7497L46.5545 33.5047C46.8118 33.6602 47.0245 33.8796 47.1719 34.1416C47.3193 34.4037 47.3964 34.6994 47.3957 35Z" fill="#211C1C"/>
</svg>
