<svg width="21" height="20" viewBox="0 0 21 20" fill="none" xmlns="http://www.w3.org/2000/svg">
<path d="M19.1514 5.15797H15.3027C15.3027 3.93309 14.8162 2.75838 13.95 1.89226C13.0839 1.02613 11.9092 0.539551 10.6843 0.539551C9.45943 0.539551 8.28472 1.02613 7.4186 1.89226C6.55247 2.75838 6.06589 3.93309 6.06589 5.15797H2.21721C1.80891 5.15797 1.41734 5.32017 1.12864 5.60887C0.839928 5.89758 0.677734 6.28915 0.677734 6.69745V18.2435C0.677734 18.6518 0.839928 19.0434 1.12864 19.3321C1.41734 19.6208 1.80891 19.783 2.21721 19.783H19.1514C19.5597 19.783 19.9513 19.6208 20.24 19.3321C20.5287 19.0434 20.6909 18.6518 20.6909 18.2435V6.69745C20.6909 6.28915 20.5287 5.89758 20.24 5.60887C19.9513 5.32017 19.5597 5.15797 19.1514 5.15797ZM10.6843 2.07902C11.5009 2.07902 12.284 2.40341 12.8615 2.98083C13.4389 3.55824 13.7633 4.34138 13.7633 5.15797H7.60537C7.60537 4.34138 7.92975 3.55824 8.50717 2.98083C9.08458 2.40341 9.86773 2.07902 10.6843 2.07902ZM19.1514 18.2435H2.21721V6.69745H6.06589V8.23692C6.06589 8.44107 6.14699 8.63685 6.29134 8.78121C6.4357 8.92556 6.63148 9.00666 6.83563 9.00666C7.03978 9.00666 7.23556 8.92556 7.37991 8.78121C7.52427 8.63685 7.60537 8.44107 7.60537 8.23692V6.69745H13.7633V8.23692C13.7633 8.44107 13.8444 8.63685 13.9887 8.78121C14.1331 8.92556 14.3289 9.00666 14.533 9.00666C14.7371 9.00666 14.9329 8.92556 15.0773 8.78121C15.2216 8.63685 15.3027 8.44107 15.3027 8.23692V6.69745H19.1514V18.2435Z" fill="white"/>
</svg>
