<svg width="70" height="57" viewBox="0 0 70 57" fill="none" xmlns="http://www.w3.org/2000/svg">
<path d="M69.4255 6.25174L55.3005 0.601737C54.9632 0.466576 54.5868 0.466576 54.2495 0.601737L40.1245 6.25174C39.8627 6.35667 39.6383 6.53761 39.4802 6.77123C39.3221 7.00485 39.2376 7.28045 39.2375 7.56254V22.1621C39.2448 24.8447 39.9429 27.4802 41.2645 29.8147C42.5861 32.1491 44.4867 34.1038 46.7831 35.4905L54.049 39.8495C54.2683 39.9809 54.5193 40.0503 54.775 40.0503C55.0307 40.0503 55.2817 39.9809 55.501 39.8495L61.8375 36.047V51.867C61.8368 52.4812 61.5925 53.0699 61.1582 53.5042C60.7239 53.9385 60.1351 54.1828 59.521 54.1835H4.829C4.21486 54.1828 3.62608 53.9385 3.19181 53.5042C2.75755 53.0699 2.51325 52.4812 2.5125 51.867V20.275H35C35.3746 20.275 35.7339 20.1262 35.9988 19.8613C36.2637 19.5964 36.4125 19.2372 36.4125 18.8625C36.4125 18.4879 36.2637 18.1286 35.9988 17.8638C35.7339 17.5989 35.3746 17.45 35 17.45H2.5125V14.1165C2.51325 13.5024 2.75755 12.9136 3.19181 12.4794C3.62608 12.0451 4.21486 11.8008 4.829 11.8H35C35.3746 11.8 35.7339 11.6512 35.9988 11.3863C36.2637 11.1214 36.4125 10.7622 36.4125 10.3875C36.4125 10.0129 36.2637 9.65365 35.9988 9.38875C35.7339 9.12386 35.3746 8.97504 35 8.97504H4.829C3.46562 8.97579 2.15829 9.51772 1.19424 10.4818C0.230181 11.4458 -0.311752 12.7532 -0.3125 14.1165V51.8585C-0.311752 53.2219 0.230181 54.5293 1.19424 55.4933C2.15829 56.4574 3.46562 56.9993 4.829 57H59.521C60.8844 56.9993 62.1917 56.4574 63.1558 55.4933C64.1198 54.5293 64.6618 53.2219 64.6625 51.8585V34.1175C66.4221 32.6587 67.84 30.8314 68.8163 28.7647C69.7925 26.698 70.3033 24.4422 70.3125 22.1565V7.56254C70.3124 7.28045 70.2279 7.00485 70.0698 6.77123C69.9117 6.53761 69.6873 6.35667 69.4255 6.25174ZM67.4875 22.1621C67.4817 24.3572 66.9104 26.5137 65.8288 28.4237C64.7471 30.3337 63.1915 31.9327 61.312 33.0666L54.775 36.9906L48.238 33.0666C46.3585 31.9327 44.8029 30.3337 43.7212 28.4237C42.6396 26.5137 42.0683 24.3572 42.0625 22.1621V8.51739L54.775 3.43239L67.4875 8.51739V22.1621Z" fill="#54A3F2"/>
</svg>
