<svg width="19" height="23" viewBox="0 0 19 23" fill="none" xmlns="http://www.w3.org/2000/svg">
<path fill-rule="evenodd" clip-rule="evenodd" d="M9.49993 0.282959C8.25317 0.282959 7.05748 0.796574 6.17589 1.71081C5.29431 2.62505 4.79903 3.86503 4.79903 5.15796C4.79903 6.45089 5.29431 7.69086 6.17589 8.6051C7.05748 9.51934 8.25317 10.033 9.49993 10.033C10.7467 10.033 11.9424 9.51934 12.824 8.6051C13.7055 7.69086 14.2008 6.45089 14.2008 5.15796C14.2008 3.86503 13.7055 2.62505 12.824 1.71081C11.9424 0.796574 10.7467 0.282959 9.49993 0.282959ZM6.28353 5.15796C6.28353 4.27332 6.6224 3.42492 7.22559 2.79939C7.82878 2.17385 8.64688 1.82243 9.49993 1.82243C10.353 1.82243 11.1711 2.17385 11.7743 2.79939C12.3775 3.42492 12.7163 4.27332 12.7163 5.15796C12.7163 6.0426 12.3775 6.891 11.7743 7.51653C11.1711 8.14206 10.353 8.49349 9.49993 8.49349C8.64688 8.49349 7.82878 8.14206 7.22559 7.51653C6.6224 6.891 6.28353 6.0426 6.28353 5.15796ZM9.49993 11.5724C7.21084 11.5724 5.10088 12.1123 3.5382 13.0236C1.99829 13.9227 0.840387 15.2836 0.840387 16.9606V17.0653C0.839398 18.2579 0.838408 19.7542 2.10419 20.8236C2.72668 21.3491 3.59857 21.7237 4.77627 21.97C5.95595 22.2184 7.49487 22.3487 9.49993 22.3487C11.505 22.3487 13.0429 22.2184 14.2246 21.97C15.4023 21.7237 16.2732 21.3491 16.8967 20.8236C18.1624 19.7542 18.1605 18.2579 18.1595 17.0653V16.9606C18.1595 15.2836 17.0016 13.9227 15.4626 13.0236C13.899 12.1123 11.79 11.5724 9.49993 11.5724ZM2.32488 16.9606C2.32488 16.0872 2.94045 15.1389 4.26561 14.3661C5.568 13.6066 7.41669 13.1119 9.50092 13.1119C11.5832 13.1119 13.4319 13.6066 14.7342 14.3661C16.0604 15.1389 16.675 16.0872 16.675 16.9606C16.675 18.303 16.6354 19.0584 15.9585 19.629C15.5923 19.939 14.9787 20.2417 13.9297 20.4614C12.8836 20.681 11.4535 20.8093 9.49993 20.8093C7.54634 20.8093 6.11528 20.681 5.0702 20.4614C4.02116 20.2417 3.40757 19.939 3.04139 19.63C2.36447 19.0584 2.32488 18.303 2.32488 16.9606Z" fill="white"/>
</svg>
