<svg width="46" height="42" viewBox="0 0 46 42" fill="none" xmlns="http://www.w3.org/2000/svg">
<path d="M10.7334 16.0312C8.36953 16.0312 6.32508 16.6875 4.60008 18V16.0312C4.60008 12.7188 5.798 9.89062 8.19383 7.54688C10.5897 5.20312 13.4806 4.03125 16.8667 4.03125C18.2084 4.03125 18.8792 3.34375 18.8792 1.96875C18.8792 0.65625 18.2084 0 16.8667 0C12.3945 0 8.54522 1.5625 5.31883 4.6875C2.09244 7.8125 0.479248 11.5938 0.479248 16.0312V25.9688C0.479248 28.7812 1.46953 31.1562 3.45008 33.0938C5.43064 35.0312 7.85842 36 10.7334 36C13.6084 36 16.0362 35.0312 18.0167 33.0938C19.9973 31.1562 20.9876 28.7812 20.9876 25.9688C20.9876 23.2188 19.9973 20.875 18.0167 18.9375C16.0362 17 13.6084 16.0312 10.7334 16.0312ZM35.2668 16.0312C32.9029 16.0312 30.8584 16.6875 29.1334 18V16.0312C29.1334 12.7188 30.3313 9.89062 32.7272 7.54688C35.123 5.20312 38.014 4.03125 41.4001 4.03125C42.7417 4.03125 43.4126 3.34375 43.4126 1.96875C43.4126 0.65625 42.7417 0 41.4001 0C36.9279 0 33.0786 1.5625 29.8522 4.6875C26.6258 7.8125 25.0126 11.5938 25.0126 16.0312V25.9688C25.0126 28.7812 26.0029 31.1562 27.9834 33.0938C29.964 35.0312 32.3918 36 35.2668 36C38.1418 36 40.5695 35.0312 42.5501 33.0938C44.5306 31.1562 45.5209 28.7812 45.5209 25.9688C45.5209 23.2188 44.5306 20.875 42.5501 18.9375C40.5695 17 38.1418 16.0312 35.2668 16.0312Z" fill="#D7D7D7"/>
</svg>
