<svg width="21" height="21" viewBox="0 0 21 21" fill="none" xmlns="http://www.w3.org/2000/svg">
<path d="M20.2814 18.824L16.4738 15.0472C17.9517 13.2043 18.6675 10.8652 18.4738 8.51088C18.2802 6.15651 17.1918 3.96582 15.4326 2.38926C13.6733 0.812693 11.3769 -0.0299076 9.01544 0.0347097C6.654 0.0993269 4.40707 1.06625 2.73666 2.73666C1.06625 4.40707 0.0993269 6.654 0.0347097 9.01544C-0.0299076 11.3769 0.812694 13.6733 2.38926 15.4326C3.96582 17.1918 6.15651 18.2802 8.51088 18.4738C10.8652 18.6675 13.2043 17.9517 15.0472 16.4738L18.824 20.2506C18.9194 20.3468 19.0329 20.4231 19.158 20.4752C19.2831 20.5273 19.4172 20.5542 19.5527 20.5542C19.6882 20.5542 19.8223 20.5273 19.9474 20.4752C20.0725 20.4231 20.186 20.3468 20.2814 20.2506C20.4664 20.0592 20.5698 19.8035 20.5698 19.5373C20.5698 19.2711 20.4664 19.0154 20.2814 18.824ZM9.28954 16.4738C7.86864 16.4738 6.47965 16.0524 5.29821 15.263C4.11677 14.4736 3.19595 13.3516 2.6522 12.0388C2.10844 10.7261 1.96617 9.28157 2.24337 7.88797C2.52058 6.49437 3.20481 5.21427 4.20954 4.20954C5.21427 3.20481 6.49437 2.52058 7.88797 2.24337C9.28157 1.96617 10.7261 2.10844 12.0388 2.6522C13.3516 3.19595 14.4736 4.11677 15.263 5.29821C16.0524 6.47965 16.4738 7.86864 16.4738 9.28954C16.4738 11.1949 15.7168 13.0222 14.3695 14.3695C13.0222 15.7168 11.1949 16.4738 9.28954 16.4738Z" fill="white"/>
</svg>
