<svg width="70" height="60" viewBox="0 0 70 60" fill="none" xmlns="http://www.w3.org/2000/svg">
<path d="M65.0997 34.2298L63.287 26.979C63.7826 26.8737 64.1544 26.434 64.1544 25.9072V24.7381C64.1544 22.1998 62.0893 20.1348 59.5511 20.1348H51.2944V17.7235C51.2944 16.4744 50.2783 15.4583 49.0293 15.4583H33.6766L43.0062 11.7265C43.5683 11.5017 43.8416 10.8638 43.6168 10.3017C43.3921 9.73981 42.7546 9.46624 42.1921 9.69114L34.5531 12.7467C36.8808 11.2532 39.1839 9.60938 40.0606 8.45985C41.7676 6.2219 41.3353 3.01256 39.0973 1.30563C36.8594 -0.40144 33.65 0.0310019 31.9431 2.26895C30.696 3.90438 29.0504 8.49964 27.9854 11.7378C26.9203 8.49991 25.2748 3.90438 24.0276 2.26895C22.3208 0.0310019 19.1114 -0.401166 16.8734 1.30563C14.6355 3.01243 14.2033 6.22176 15.9101 8.45985C16.7869 9.60952 19.0898 11.2532 21.4177 12.7467L13.7787 9.69114C13.2163 9.46596 12.5787 9.73967 12.3539 10.3017C12.129 10.8638 12.4024 11.5017 12.9645 11.7265L22.2942 15.4583H6.94148C5.69242 15.4583 4.67633 16.4744 4.67633 17.7235V37.5983C4.67633 38.2036 5.16701 38.6944 5.7724 38.6944C6.37766 38.6944 6.86848 38.2037 6.86848 37.5983V17.7235C6.86848 17.6832 6.90115 17.6505 6.94148 17.6505H49.0291C49.0695 17.6505 49.1021 17.6832 49.1021 17.7235V37.5986C49.1021 38.2038 49.5928 38.6947 50.1982 38.6947C50.8035 38.6947 51.2943 38.204 51.2943 37.5986V36.3561H64.2232C64.2245 36.3561 64.2254 36.3564 64.2266 36.3564C64.2279 36.3564 64.229 36.3562 64.2302 36.3562C65.8211 36.3574 67.1718 37.4017 67.6356 38.8405H64.2275C63.6222 38.8405 63.1314 39.3312 63.1314 39.9366V42.2748C63.1314 44.1685 64.6719 45.709 66.5656 45.709H67.8079V50.5315H64.942C64.0005 47.8132 61.4164 45.855 58.3819 45.855C55.3474 45.855 52.7632 47.8131 51.8219 50.5315H51.2941V42.2746C51.2941 41.6694 50.8035 41.1786 50.1981 41.1786C49.5928 41.1786 49.102 41.6692 49.102 42.2746V50.5314H26.3617C25.4203 47.8131 22.8361 45.8549 19.8017 45.8549C16.7672 45.8549 14.1829 47.813 13.2416 50.5314H6.94148C6.90115 50.5314 6.86848 50.4987 6.86848 50.4583V48.047H11.6179C12.2232 48.047 12.714 47.5564 12.714 46.951C12.714 46.3456 12.2233 45.8549 11.6179 45.8549H1.09607C0.49082 45.8549 0 46.3456 0 46.951C0 47.5564 0.490684 48.047 1.09607 48.047H4.67647V50.4583C4.67647 51.7074 5.69256 52.7235 6.94162 52.7235H12.8621C12.8618 52.7478 12.8602 52.772 12.8602 52.7965C12.8602 56.624 15.9742 59.738 19.8017 59.738C23.6291 59.738 26.7431 56.624 26.7431 52.7965C26.7431 52.7719 26.7415 52.7478 26.7412 52.7235H51.4422C51.4419 52.7478 51.4403 52.772 51.4403 52.7965C51.4403 56.624 54.5543 59.738 58.3818 59.738C62.2092 59.738 65.3233 56.624 65.3233 52.7965C65.3233 52.7719 65.3216 52.7478 65.3214 52.7235H68.9038C69.509 52.7235 69.9999 52.2328 69.9999 51.6274V39.9365C70 37.0498 67.8703 34.6515 65.0997 34.2298ZM23.6387 11.5511C19.3152 8.8644 18.0328 7.62833 17.6531 7.1304C16.6793 5.85358 16.9259 4.02251 18.2029 3.04866C18.7292 2.64725 19.3497 2.45325 19.9656 2.45325C20.8436 2.45325 21.7123 2.84782 22.2847 3.5984C23.345 4.98856 25.0054 9.66749 26.1017 13.0391C25.3619 12.6035 24.5115 12.0937 23.6387 11.5511ZM29.8694 13.039C30.9656 9.66749 32.626 4.9887 33.6861 3.59827C34.66 2.32145 36.4911 2.07495 37.7679 3.04866C39.0448 4.02251 39.2913 5.85358 38.3176 7.1304C37.9379 7.62819 36.6555 8.8644 32.3323 11.5509C31.4597 12.0934 30.6093 12.6034 29.8694 13.039ZM51.2944 22.3267H59.5511C60.8807 22.3267 61.9624 23.4084 61.9624 24.738V24.811H51.2944V22.3267ZM51.2944 34.1639V27.0032H61.0336L62.8238 34.1639H51.2944ZM19.8017 57.546C17.1828 57.546 15.0522 55.4154 15.0522 52.7965C15.0522 50.1777 17.1828 48.047 19.8017 48.047C22.4205 48.047 24.5511 50.1777 24.5511 52.7965C24.5511 55.4154 22.4205 57.546 19.8017 57.546ZM58.3821 57.546C55.7632 57.546 53.6326 55.4154 53.6326 52.7965C53.6326 50.1777 55.7632 48.047 58.3821 48.047C61.0009 48.047 63.1315 50.1777 63.1315 52.7965C63.1315 55.4154 61.0009 57.546 58.3821 57.546ZM67.808 43.5167H66.5658C65.8808 43.5167 65.3235 42.9595 65.3235 42.2745V41.0323H67.8079V43.5167H67.808Z" fill="#54A3F2"/>
</svg>
