<svg width="94" height="18" viewBox="0 0 94 18" fill="none" xmlns="http://www.w3.org/2000/svg">
<path d="M17.3543 7.02522C17.2131 6.59212 16.8386 6.27726 16.3873 6.21153L11.816 5.54729L9.77337 1.41992C9.36891 0.603843 8.03217 0.603843 7.62771 1.41992L5.58505 5.54729L1.02458 6.21153C0.57459 6.27726 0.200059 6.59322 0.0588754 7.0265C-0.0823082 7.4585 0.0350082 7.93364 0.361621 8.25181L3.66925 11.4757L2.88897 16.0242C2.81241 16.473 2.99674 16.9277 3.36521 17.1958C3.73497 17.4625 4.22443 17.4974 4.6265 17.2855L8.70008 15.1375L12.7856 17.2855C12.9604 17.3777 13.1519 17.4232 13.3421 17.4232C13.5897 17.4232 13.8374 17.3454 14.0469 17.1959C14.4155 16.9266 14.5997 16.4731 14.5231 16.0244L13.7441 11.4759L17.0518 8.25199C17.3784 7.93474 17.4955 7.4585 17.3543 7.02522Z" fill="#FFC635"/>
<path d="M36.501 7.02522C36.3599 6.59212 35.9853 6.27726 35.5341 6.21153L30.9628 5.54729L28.9201 1.41992C28.5156 0.603843 27.1789 0.603843 26.7744 1.41992L24.7318 5.54729L20.1713 6.21153C19.7213 6.27726 19.3468 6.59322 19.2056 7.0265C19.0644 7.4585 19.1817 7.93364 19.5084 8.25181L22.816 11.4757L22.0357 16.0242C21.9591 16.473 22.1435 16.929 22.5119 17.1958C22.8806 17.4625 23.3712 17.4974 23.7732 17.2855L27.8468 15.1375L31.9323 17.2855C32.1071 17.3777 32.2986 17.4232 32.4888 17.4232C32.7365 17.4232 32.9841 17.3454 33.1936 17.1959C33.5623 16.9266 33.7464 16.4731 33.6699 16.0244L32.8909 11.4759L36.1985 8.25199C36.5251 7.93474 36.6422 7.4585 36.501 7.02522Z" fill="#FFC635"/>
<path d="M55.648 7.02522C55.5068 6.59212 55.1323 6.27726 54.681 6.21153L50.1097 5.54729L48.0671 1.41992C47.6626 0.603843 46.3259 0.603843 45.9214 1.41992L43.8787 5.54729L39.3183 6.21153C38.8683 6.27726 38.4938 6.59322 38.3526 7.0265C38.2114 7.4585 38.3287 7.93364 38.6553 8.25181L41.9629 11.4757L41.1827 16.0242C41.1061 16.473 41.2904 16.9277 41.6589 17.1958C42.0287 17.4625 42.5181 17.4974 42.9202 17.2855L46.9936 15.1375L51.0791 17.2855C51.2539 17.3777 51.4454 17.4232 51.6356 17.4232C51.8832 17.4232 52.1309 17.3454 52.3404 17.1959C52.7091 16.9266 52.8932 16.4731 52.8166 16.0244L52.0377 11.4759L55.3453 8.25199C55.6721 7.93474 55.7892 7.4585 55.648 7.02522Z" fill="#FFC635"/>
<path d="M74.7948 7.02522C74.6536 6.59212 74.279 6.27726 73.8278 6.21153L69.2565 5.54729L67.2138 1.41992C66.8093 0.603843 65.4726 0.603843 65.0681 1.41992L63.0255 5.54729L58.465 6.21153C58.015 6.27726 57.6405 6.59322 57.4993 7.0265C57.3581 7.4585 57.4754 7.93364 57.8021 8.25181L61.1097 11.4757L60.3294 16.0242C60.2528 16.473 60.4372 16.9277 60.8056 17.1958C61.1754 17.4625 61.6649 17.4974 62.0669 17.2855L66.1403 15.1375L70.2258 17.2855C70.4006 17.3777 70.5921 17.4232 70.7823 17.4232C71.03 17.4232 71.2777 17.3454 71.4871 17.1959C71.8558 16.9266 72.0399 16.4731 71.9634 16.0244L71.1844 11.4759L74.492 8.25199C74.8186 7.93474 74.9359 7.4585 74.7948 7.02522Z" fill="#FFC635"/>
<path d="M93.9415 7.02522C93.799 6.59212 93.4258 6.27726 92.9745 6.21153L88.4032 5.54729L86.3605 1.41992C85.9561 0.603843 84.6193 0.603843 84.2149 1.41992L82.1722 5.54729L77.6117 6.21153C77.1617 6.27726 76.7872 6.59322 76.646 7.0265C76.5048 7.4585 76.6222 7.93364 76.9488 8.25181L80.2564 11.4757L79.4761 16.0242C79.3996 16.473 79.5839 16.9277 79.9524 17.1958C80.1606 17.3465 80.4071 17.423 80.6548 17.423C80.8463 17.423 81.0378 17.3775 81.2148 17.2854L85.2883 15.1373L89.375 17.2854C89.777 17.4996 90.2652 17.4636 90.6351 17.1945C91.0025 16.9264 91.1868 16.4729 91.1103 16.0241L90.3313 11.4755L93.6389 8.25162C93.9653 7.93474 94.0816 7.4585 93.9415 7.02522Z" fill="#FFC635"/>
</svg>
