<svg width="70" height="70" viewBox="0 0 70 70" fill="none" xmlns="http://www.w3.org/2000/svg">
<path d="M67.0244 1.7522H18.1291C16.4864 1.75411 15.1553 3.08526 15.1534 4.72793V18.2145L12.9175 14.8606C11.894 13.3168 9.83574 12.8536 8.24968 13.8103L3.6496 16.576C2.14314 17.46 1.03804 18.8934 0.566521 20.5752C-1.11157 26.6854 0.133564 37.2125 15.5852 52.6665C27.8731 64.9417 37.0348 68.2477 43.3492 68.2477C44.8111 68.2543 46.2674 68.0644 47.6787 67.6829C49.3598 67.2113 50.7932 66.1077 51.679 64.6033L54.4411 59.9985C55.394 58.4136 54.9312 56.3596 53.3908 55.3364L42.376 47.9939C40.865 46.9945 38.8397 47.3232 37.7221 48.7489L34.5153 52.8718C34.1801 53.3129 33.5721 53.4415 33.0869 53.174L32.4766 52.8378C30.4683 51.7433 27.9687 50.3803 22.9205 45.332C22.3743 44.7859 21.8795 44.2748 21.4151 43.7858H67.0244C68.6629 43.787 69.9937 42.4626 70.0001 40.824V4.72793C69.9982 3.08526 68.667 1.75411 67.0244 1.7522ZM31.3599 54.8872L31.9527 55.2128C33.4429 56.0461 35.3187 55.6595 36.3579 54.3049L39.5648 50.1821C39.9293 49.7177 40.589 49.6106 41.0817 49.9358L52.0966 57.2783C52.597 57.6119 52.7474 58.2795 52.4385 58.7953L49.6764 63.4002C49.0995 64.3893 48.1624 65.1168 47.0612 65.4307C41.5451 66.9477 31.8909 65.6641 17.2386 51.0107C2.58622 36.3573 1.30745 26.704 2.82088 21.1925C3.13446 20.0915 3.86157 19.1545 4.85015 18.5774L9.45502 15.814C9.97098 15.5058 10.6382 15.6561 10.972 16.1559L18.3179 27.1708C18.6437 27.6634 18.5366 28.3236 18.0716 28.6878L13.9476 31.8957C12.5933 32.9346 12.2066 34.81 13.0397 36.2998L13.3664 36.8926C14.5333 39.0328 15.9838 41.6958 21.2714 46.9821C26.559 52.2685 29.2209 53.7202 31.3599 54.8872ZM67.6663 40.8241C67.6624 41.1752 67.3754 41.4569 67.0245 41.4543H19.3099C17.7943 39.7211 16.4874 37.8161 15.4158 35.7782L15.0796 35.1656C14.8116 34.6815 14.9399 34.074 15.3808 33.7395L19.5048 30.5316C20.9311 29.4143 21.2598 27.3888 20.2598 25.8778L17.4872 21.7164V4.72793C17.4853 4.55713 17.5523 4.39275 17.673 4.272C17.7938 4.15124 17.9581 4.08424 18.1289 4.08615H67.0244C67.1952 4.08424 67.3595 4.15124 67.4803 4.272C67.601 4.39275 67.6681 4.55713 67.6661 4.72793V40.8241H67.6663Z" fill="#54A3F2"/>
<path d="M63.0052 7.15528L43.5019 21.9464C42.9501 22.3474 42.2029 22.3474 41.6511 21.9464L22.155 7.15528C21.6413 6.76567 20.909 6.86632 20.5195 7.37996C20.1299 7.8936 20.2306 8.62591 20.7442 9.01538L40.2428 23.8053C41.63 24.8301 43.5233 24.8301 44.9106 23.8053L64.415 9.01538C64.6618 8.8283 64.8242 8.5507 64.8662 8.24382C64.9081 7.93695 64.8265 7.62598 64.639 7.37941C64.2495 6.86673 63.5185 6.76649 63.0052 7.15528Z" fill="#54A3F2"/>
<path d="M32.6178 23.9034L20.6636 36.7049C20.224 37.1763 20.2499 37.9149 20.7213 38.3544C21.1926 38.794 21.9312 38.7681 22.3708 38.2967L34.3251 25.4894C34.7201 25.013 34.6742 24.311 34.2209 23.8897C33.7674 23.4684 33.064 23.4744 32.6178 23.9034Z" fill="#54A3F2"/>
<path d="M52.6125 23.9033C52.173 23.4319 51.4345 23.406 50.963 23.8456C50.4916 24.2851 50.4656 25.0236 50.9053 25.4951L62.8561 38.2966C63.2956 38.768 64.0341 38.794 64.5056 38.3544C64.977 37.9148 65.003 37.1764 64.5633 36.7048L52.6125 23.9033Z" fill="#54A3F2"/>
</svg>
