<svg width="15" height="12" viewBox="0 0 15 12" fill="none" xmlns="http://www.w3.org/2000/svg">
<path d="M3.12501 5.10544C2.99386 4.97411 2.83814 4.8699 2.66672 4.79876C2.4953 4.72761 2.31155 4.69092 2.12595 4.69079C1.94036 4.69066 1.75656 4.72709 1.58504 4.79799C1.41352 4.86889 1.25765 4.97288 1.12632 5.10403C0.99499 5.23517 0.89078 5.3909 0.819635 5.56231C0.748489 5.73373 0.711801 5.91749 0.71167 6.10308C0.711539 6.28868 0.747967 6.47248 0.81887 6.644C0.889773 6.81552 0.993764 6.97139 1.12491 7.10272L4.89346 10.8684C5.15834 11.1332 5.51755 11.282 5.89209 11.282C6.26664 11.282 6.62585 11.1332 6.89073 10.8684L14.425 3.33416C14.6899 3.06893 14.8385 2.70936 14.8382 2.33453C14.838 1.9597 14.6888 1.60033 14.4236 1.33548C14.1584 1.07062 13.7988 0.921977 13.424 0.922242C13.0491 0.922506 12.6898 1.07166 12.4249 1.33689L5.89068 7.87394L3.12501 5.10544Z" fill="#54A3F2"/>
</svg>
